<?xml version="1.0" standalone="no"?>
<!DOCTYPE svg PUBLIC "-//W3C//DTD SVG 20010904//EN"
 "http://www.w3.org/TR/2001/REC-SVG-20010904/DTD/svg10.dtd">
<svg version="1.0" xmlns="http://www.w3.org/2000/svg"
 width="382.000000pt" height="385.000000pt" viewBox="0 0 382.000000 385.000000"
 preserveAspectRatio="xMidYMid meet">

<g transform="translate(0.000000,385.000000) scale(0.100000,-0.100000)"
fill="#000000" stroke="none">
<path d="M1735 3803 c-395 -47 -729 -191 -1025 -441 -284 -239 -493 -572 -605
-964 -59 -203 -69 -279 -69 -518 1 -195 3 -227 28 -345 97 -462 334 -862 672
-1136 213 -174 477 -308 733 -375 90 -23 104 -24 450 -24 343 0 360 1 456 24
698 170 1250 756 1398 1486 55 270 56 495 2 752 -73 353 -271 737 -501 974
-363 372 -854 578 -1368 573 -78 -1 -154 -4 -171 -6z m75 -34 c-234 -22 -504
-96 -691 -189 -132 -67 -285 -170 -374 -252 -38 -36 -85 -78 -103 -93 -42 -35
-171 -193 -240 -293 -70 -103 -173 -311 -222 -447 -21 -60 -39 -105 -39 -100
-2 27 53 189 92 275 166 366 367 607 687 825 182 124 366 197 645 257 59 13
195 25 280 25 45 0 37 -2 -35 -8z m429 -248 c404 -90 749 -309 963 -612 86
-123 180 -294 228 -417 49 -128 95 -330 109 -483 48 -513 -197 -1069 -622
-1412 -158 -128 -474 -285 -583 -290 -23 -1 -40 -5 -38 -8 4 -7 -79 -25 -181
-39 -91 -13 -311 -12 -400 0 -159 23 -385 88 -385 111 0 6 -4 7 -10 4 -25 -15
-286 136 -417 242 -124 100 -278 269 -330 363 -11 19 -43 76 -72 126 -154 274
-227 592 -201 883 28 334 120 595 304 871 122 183 330 370 554 499 129 75 363
152 537 177 135 20 424 12 544 -15z"/>
<path d="M1835 3389 c-191 -20 -340 -120 -419 -281 -21 -43 -42 -81 -48 -84
-21 -13 -77 -113 -102 -184 -21 -56 -29 -101 -33 -180 -7 -126 6 -213 46 -307
25 -57 27 -70 16 -83 -28 -32 -155 -254 -155 -272 0 -50 127 -46 307 11 l91
28 69 -33 c85 -42 165 -63 268 -71 68 -5 98 -1 190 22 225 56 383 194 469 408
34 85 46 150 46 248 0 141 -30 231 -124 373 -29 45 -67 111 -85 148 -50 107
-158 191 -296 233 -91 27 -153 33 -240 24z m190 -103 c87 -23 162 -65 206
-114 44 -50 84 -120 75 -130 -4 -3 -34 6 -69 20 -35 15 -110 36 -167 48 -167
36 -339 18 -485 -50 -35 -16 -69 -30 -75 -30 -22 0 23 97 74 157 28 34 112 77
188 97 68 19 189 20 253 2z m27 -318 c102 -54 158 -143 158 -250 0 -94 -41
-155 -155 -230 -29 -20 -57 -49 -70 -73 -50 -97 -167 -59 -151 50 9 55 42 96
101 125 63 31 95 59 112 97 12 31 12 38 -4 71 -10 19 -30 45 -45 55 -28 21
-111 34 -152 23 -42 -11 -82 -53 -96 -101 -14 -51 -41 -75 -82 -75 -44 0 -68
32 -68 89 0 65 11 92 61 146 79 86 156 118 263 110 51 -4 84 -13 128 -37z
m-542 -18 c-14 -11 -36 -23 -50 -26 -41 -9 -54 -19 -77 -60 -13 -21 -23 -34
-23 -29 0 6 10 28 23 50 16 28 31 41 52 45 17 4 44 14 60 23 40 22 45 21 15
-3z m260 -283 c0 -2 -12 -14 -27 -28 l-28 -24 24 28 c23 25 31 32 31 24z m440
-96 c-5 -11 -15 -23 -21 -27 -6 -3 -3 5 6 20 20 30 30 35 15 7z m-30 -44 c0
-2 -10 -12 -22 -23 l-23 -19 19 23 c18 21 26 27 26 19z m-212 -284 c31 -33 30
-86 -3 -118 -70 -71 -186 31 -129 113 33 47 92 49 132 5z m-546 -22 c-4 -36
-96 -161 -119 -161 -16 0 6 51 49 114 50 75 76 92 70 47z m578 -126 c-13 -14
-27 -25 -32 -25 -5 0 3 13 19 29 34 35 46 31 13 -4z"/>
<path d="M2813 3040 c-91 -55 -82 -203 16 -258 55 -31 55 -61 2 -111 -47 -42
-61 -75 -61 -140 0 -40 -5 -52 -31 -77 -29 -27 -31 -33 -27 -87 4 -48 9 -63
36 -90 l32 -33 0 -111 c0 -103 -2 -112 -20 -118 -36 -12 -53 -50 -48 -110 4
-46 10 -62 38 -90 l34 -35 120 0 c76 0 130 5 146 13 14 6 35 32 48 57 31 60
25 114 -17 152 -31 28 -31 28 -31 134 0 104 1 107 30 140 52 60 52 135 -1 185
-25 24 -29 34 -29 84 0 68 -18 106 -65 135 -29 18 -35 28 -35 55 0 28 7 39 36
59 40 27 74 72 74 97 0 30 -29 29 -77 -1 -54 -35 -82 -37 -114 -11 -18 14 -24
29 -24 61 0 36 6 47 34 70 18 16 30 33 27 39 -11 17 -58 13 -93 -9z m152 -477
c3 -14 3 -38 0 -54 -6 -27 -10 -29 -56 -29 l-49 0 0 49 c0 41 4 53 26 70 24
19 28 19 49 5 13 -8 26 -27 30 -41z m61 -178 c4 -8 3 -26 0 -39 -5 -22 -9 -23
-111 -24 -103 -1 -105 0 -111 24 -13 49 -3 54 111 54 85 0 107 -3 111 -15z
m-64 -245 c5 -52 6 -101 3 -107 -3 -8 -24 -13 -55 -13 l-50 0 0 103 c0 57 3
107 7 111 4 4 25 6 48 4 l40 -3 7 -95z m64 -215 c4 -8 3 -26 0 -40 -6 -25 -8
-25 -111 -25 -103 0 -105 0 -111 25 -13 50 -3 55 111 55 85 0 107 -3 111 -15z"/>
<path d="M902 2848 c-20 -20 -14 -37 25 -71 59 -52 72 -59 99 -53 38 10 30 41
-23 91 -48 45 -79 55 -101 33z"/>
<path d="M830 2591 c-53 -6 -55 -7 -55 -36 l0 -30 113 -8 c125 -10 145 -3 140
42 -5 38 -58 47 -198 32z"/>
<path d="M964 2384 c-75 -30 -97 -58 -75 -92 6 -11 15 -11 47 1 55 19 124 65
124 82 0 31 -34 34 -96 9z"/>
<path d="M3236 2264 c-3 -8 -21 -22 -41 -31 -33 -16 -46 -33 -26 -33 5 0 24
-12 42 -27 l32 -27 15 22 c8 12 20 22 28 22 27 0 24 21 -10 54 -26 26 -36 31
-40 20z"/>
<path d="M1477 1849 c-32 -5 -102 -22 -155 -39 -53 -17 -132 -35 -176 -40 -83
-10 -121 -27 -137 -63 -10 -23 -161 -503 -207 -659 -22 -77 -24 -92 -13 -127
42 -141 173 -174 442 -111 172 41 266 48 342 26 53 -15 57 -19 67 -56 16 -60
83 -138 143 -166 58 -27 161 -33 227 -13 67 20 131 78 171 154 33 64 40 71 80
83 58 18 155 10 294 -23 130 -31 304 -43 358 -26 20 7 47 21 62 33 32 25 65
88 65 124 0 15 -22 95 -49 178 -27 83 -59 185 -71 226 -12 41 -28 95 -36 120
-7 25 -25 90 -39 145 -32 128 -44 140 -152 148 -47 4 -118 19 -171 36 -143 48
-263 67 -340 53 -81 -13 -157 -51 -220 -107 l-49 -44 -29 30 c-85 89 -261 140
-407 118z m267 -128 c53 -26 71 -41 93 -79 l28 -47 3 -264 4 -264 -40 32 c-87
69 -250 119 -347 106 -46 -6 -161 -32 -306 -70 -70 -19 -140 -19 -183 -1 -45
19 -47 25 -31 82 8 27 35 121 60 209 26 88 53 181 61 206 l15 46 63 6 c34 3
105 19 157 36 52 16 103 32 114 35 11 3 70 4 131 2 103 -2 117 -5 178 -35z
m751 -6 c61 -19 135 -38 167 -42 l56 -6 30 -96 c136 -436 131 -416 93 -435
-46 -24 -110 -19 -259 20 -75 20 -157 41 -182 46 -112 23 -304 -28 -385 -103
-23 -22 -45 -39 -49 -39 -3 0 -6 118 -6 263 0 288 0 287 69 360 57 62 109 77
246 73 93 -4 127 -10 220 -41z m-835 -625 c76 -29 142 -80 197 -150 25 -33 51
-60 56 -60 6 0 43 36 84 80 81 87 174 143 258 156 63 9 171 -9 306 -51 149
-47 217 -54 287 -27 l53 20 11 -26 c56 -142 -21 -180 -254 -128 -152 35 -281
56 -341 56 -81 0 -169 -28 -223 -70 -111 -88 -104 -85 -169 -85 -54 0 -69 5
-130 43 -39 23 -81 51 -95 62 -34 28 -122 50 -195 50 -73 0 -249 -31 -370 -65
-106 -29 -122 -30 -175 -9 -57 23 -73 57 -59 126 6 29 13 54 14 56 1 2 20 -7
41 -20 62 -37 148 -31 319 19 77 23 149 44 160 47 43 11 172 -3 225 -24z m169
-344 c73 -38 148 -27 212 31 29 26 39 31 39 19 0 -98 -174 -157 -268 -92 -39
26 -54 49 -68 96 -6 23 -5 22 26 -8 18 -18 44 -39 59 -46z"/>
<path d="M1320 1645 c-93 -25 -128 -39 -139 -55 -12 -18 -12 -23 2 -37 15 -15
27 -14 149 15 185 43 210 45 305 26 94 -18 116 -15 111 18 -6 41 -68 62 -193
65 -98 2 -124 -2 -235 -32z"/>
<path d="M1435 1536 c-194 -44 -266 -63 -276 -73 -18 -18 -6 -58 19 -61 12 -2
80 11 150 30 146 38 275 43 349 15 47 -18 78 -6 72 29 -10 54 -189 88 -314 60z"/>
<path d="M1375 1379 c-44 -10 -114 -26 -155 -34 -41 -9 -80 -21 -87 -27 -18
-14 -16 -43 2 -58 13 -11 42 -6 165 24 197 48 249 53 330 31 109 -29 107 -29
115 -5 10 31 -9 47 -82 70 -81 25 -180 25 -288 -1z"/>
<path d="M2215 1684 c-114 -27 -142 -45 -130 -84 6 -19 12 -21 39 -17 172 32
175 32 354 -14 129 -33 167 -36 176 -13 14 36 -11 50 -151 87 -133 35 -246 51
-288 41z"/>
<path d="M2172 1536 c-79 -20 -112 -57 -77 -86 12 -10 26 -9 73 4 87 24 155
20 305 -19 155 -40 182 -42 196 -16 19 34 -9 50 -149 87 -154 41 -268 50 -348
30z"/>
<path d="M2190 1392 c-85 -24 -110 -38 -110 -63 0 -29 23 -33 95 -15 90 23
136 20 271 -14 226 -56 245 -58 258 -24 13 33 -12 52 -81 64 -38 6 -110 22
-161 35 -133 35 -194 38 -272 17z"/>
<path d="M2390 345 c-19 -7 -28 -14 -20 -14 8 0 29 6 45 14 39 17 21 18 -25 0z"/>
</g>
</svg>
