<?xml version="1.0" standalone="no"?>
<!DOCTYPE svg PUBLIC "-//W3C//DTD SVG 20010904//EN"
 "http://www.w3.org/TR/2001/REC-SVG-20010904/DTD/svg10.dtd">
<svg version="1.0" xmlns="http://www.w3.org/2000/svg"
 width="265.000000pt" height="117.000000pt" viewBox="0 0 265.000000 117.000000"
 preserveAspectRatio="xMidYMid meet">

<g transform="translate(0.000000,117.000000) scale(0.100000,-0.100000)"
fill="#000000" stroke="none">
<path d="M1872 1094 c-30 -21 -30 -77 0 -98 49 -34 108 -7 108 49 0 37 -28 65
-65 65 -11 0 -31 -7 -43 -16z"/>
<path d="M2327 1092 c-25 -27 -22 -78 5 -96 46 -33 108 -4 108 49 0 55 -77 87
-113 47z"/>
<path d="M2505 1090 c-56 -62 36 -149 95 -90 11 11 20 31 20 45 0 56 -77 86
-115 45z"/>
<path d="M466 920 c-107 -32 -176 -152 -176 -306 l0 -62 -53 -6 c-73 -9 -126
-42 -154 -95 -22 -42 -23 -55 -23 -233 l0 -188 65 0 65 0 0 168 c0 129 3 173
14 188 13 17 31 19 208 25 208 6 246 14 299 65 l26 25 17 -26 c29 -45 89 -65
192 -65 l92 0 4 -98 c4 -120 30 -180 97 -227 37 -26 53 -30 119 -33 65 -2 83
1 117 20 59 35 96 93 102 165 5 57 -1 79 -45 166 -2 4 243 7 545 7 303 0 552
2 554 4 2 2 3 106 1 230 l-3 226 -64 0 -65 0 0 -160 0 -160 -130 0 -130 0 0
83 c0 112 -20 176 -69 220 -48 44 -99 60 -166 55 -104 -9 -200 -86 -226 -181
-11 -40 -8 -108 6 -154 l7 -23 -137 0 c-105 0 -135 3 -131 13 25 60 38 126 33
170 -22 183 -228 240 -350 96 -46 -53 -67 -120 -67 -211 l0 -68 -99 0 c-55 0
-107 3 -116 6 -25 10 -45 59 -45 112 0 75 -25 144 -69 189 -59 62 -161 88
-245 63z m112 -131 c47 -16 66 -54 67 -126 0 -51 -4 -66 -24 -87 -23 -24 -31
-26 -114 -26 l-90 0 6 78 c6 93 26 138 70 157 39 17 46 18 85 4z m729 -21 c26
-21 37 -83 24 -135 -19 -73 -32 -83 -114 -83 l-70 0 6 71 c7 81 31 138 67 157
26 13 65 8 87 -10z m652 7 c37 -19 51 -60 51 -151 l0 -74 -70 0 c-62 0 -73 3
-101 28 -43 39 -51 103 -17 152 39 57 85 72 137 45z m-662 -397 c67 -72 81
-142 37 -183 -32 -29 -74 -32 -115 -8 -42 25 -59 69 -59 152 l0 71 53 0 c47 0
57 -4 84 -32z"/>
</g>
</svg>
